<?xml version="1.0" encoding="utf-8"?>
<!-- Generator: Adobe Illustrator 25.4.1, SVG Export Plug-In . SVG Version: 6.00 Build 0)  -->
<svg version="1.1" id="Layer_1" xmlns="http://www.w3.org/2000/svg" xmlns:xlink="http://www.w3.org/1999/xlink" x="0px" y="0px"
	 width="1115.8px" height="159.7px" viewBox="0 0 1115.8 159.7" style="enable-background:new 0 0 1115.8 159.7;"
	 xml:space="preserve">
<style type="text/css">
	.st0{fill:#FFFFFF;}
	.st1{fill:#ACAFB5;}
	.st2{fill:#E01726;}
</style>
<g>
	<path class="st1" d="M521,46.8c0,10.7,8.6,19.3,19.3,19.3c0,0,0,0,0,0h83.3v27.5h-83.3c0,0,0,0,0,0c-10.7,0-19.3,8.6-19.3,19.3
		c0,10.7,8.6,19.3,19.3,19.3h83.3v27.5h-83.3c-19,0-35.3-11.3-42.7-27.5c-2.7-5.9-4.1-12.4-4.1-19.3c0-6.9,1.5-13.4,4.1-19.3
		c2.3-5.1,5.6-9.8,9.5-13.7c-3.9-3.9-7.2-8.6-9.5-13.7c-2.7-5.9-4.1-12.4-4.1-19.3c0-6.9,1.5-13.4,4.2-19.3
		C505,11.3,521.4,0,540.3,0h83.3v27.5h-83.3C529.6,27.5,521,36.1,521,46.8z"/>
	<polygon class="st1" points="470.9,0 424.3,0 396.8,0 350.3,0 350.3,27.5 396.8,27.5 396.8,159.7 424.3,159.7 424.3,27.5 
		470.9,27.5 	"/>
	<path class="st2" d="M146.7,159.7h31.8L119.9,13.9C116.5,5.5,108.3,0,99.3,0H79.2C70.1,0,62,5.5,58.6,13.9L0,159.7h31.8L84.1,29.6
		c0.5-1.2,1.7-2.1,3.1-2.1h4.2c1.3,0,2.6,0.8,3.1,2.1L146.7,159.7z"/>
	
		<rect x="850.9" y="66.1" transform="matrix(-1.836970e-16 1 -1 -1.836970e-16 1010.6716 -850.9419)" class="st1" width="159.7" height="27.5"/>
	<path class="st1" d="M341,159.7h-34.6l-37.1-62.8h-43v62.8h-27.5V88.3c0-10.4,8.4-18.8,18.8-18.8l67.2,0c11.3,0,21-8.7,21.5-19.9
		c0.6-12-9-22-21-22h-86.7V0h86.7c19.3,0,35.9,11.2,43.7,27.5c3.1,6.3,4.8,13.5,4.8,21c0,7.5-1.7,14.6-4.8,21
		c-5.4,11.3-15.1,20.2-27,24.6l1.7,2.9L341,159.7z"/>
	<path class="st1" d="M879.2,28.5v131.2h-27.5V38.9c0-5.8-4.4-11-10.2-11.4c-5.2-0.4-9.7,2.8-11.3,7.4l-0.4,1.8l-24.5,95.6v0
		c-4.1,16.2-18.7,27.5-35.4,27.5h-1.3c-16.7,0-31.3-11.3-35.4-27.5v0l-24.5-95.6l-0.4-1.8c-1.6-4.6-6.1-7.8-11.3-7.4
		c-5.8,0.4-10.2,5.6-10.2,11.4v120.8h-27.5V28.5C659.2,12.8,672,0,687.7,0h16.9c13,0,24.4,8.8,27.6,21.4l1.6,6.1l24.6,95.9
		c0.1,0.4,0.2,0.7,0.3,1.1c0,0,0,0,0,0c1.4,4.5,5.6,7.7,10.5,7.7c4.9,0,9.1-3.3,10.5-7.7c0,0,0,0,0,0c0.1-0.4,0.2-0.7,0.3-1.1
		l24.6-95.9l1.6-6.1C809.4,8.8,820.7,0,833.8,0h16.9C866.4,0,879.2,12.8,879.2,28.5z"/>
	<path class="st1" d="M1111.7,93.6c-7.4-16.2-23.7-27.5-42.7-27.5h-2.6h-44.5c-10.7,0-19.3-8.7-19.3-19.3c0-10.7,8.6-19.3,19.3-19.3
		h44.5h37.7V0h-80.3c-19,0-35.3,11.3-42.6,27.5c-2.7,5.9-4.2,12.4-4.2,19.3c0,6.9,1.5,13.4,4.1,19.3c7.4,16.2,23.7,27.5,42.7,27.5
		h2.6h40.8c10.7,0,19.3,8.6,19.3,19.3c0,10.7-8.6,19.3-19.3,19.3h-40.8H977v27.5h92c19,0,35.3-11.3,42.7-27.5
		c2.7-5.9,4.1-12.4,4.1-19.3C1115.8,106,1114.3,99.5,1111.7,93.6z"/>
</g>
</svg>
