<?xml version="1.0" encoding="iso-8859-1"?>
<!-- Generator: Adobe Illustrator 19.0.0, SVG Export Plug-In . SVG Version: 6.00 Build 0)  -->
<svg version="1.1" id="Capa_1" xmlns="http://www.w3.org/2000/svg" xmlns:xlink="http://www.w3.org/1999/xlink" x="0px" y="0px"
	 viewBox="0 0 409.6 409.6" style="enable-background:new 0 0 409.6 409.6;" xml:space="preserve">
<g>
	<g>
		<path d="M382.321,81.92H27.279C12.24,81.92,0,94.17,0,109.227s12.24,27.307,27.279,27.307h355.041
			c15.039,0,27.279-12.25,27.279-27.307S397.36,81.92,382.321,81.92z M382.321,122.88H27.279c-7.513,0-13.626-6.124-13.626-13.653
			c0-7.53,6.113-13.653,13.626-13.653h355.041c7.513,0,13.626,6.124,13.626,13.653C395.947,116.756,389.833,122.88,382.321,122.88z"
			/>
	</g>
</g>
<g>
	<g>
		<path d="M382.321,177.493H27.279C12.24,177.493,0,189.744,0,204.8s12.24,27.307,27.279,27.307h355.041
			c15.039,0,27.279-12.25,27.279-27.307S397.36,177.493,382.321,177.493z M382.321,218.453H27.279
			c-7.513,0-13.626-6.123-13.626-13.653c0-7.53,6.113-13.653,13.626-13.653h355.041c7.513,0,13.626,6.124,13.626,13.653
			C395.947,212.33,389.833,218.453,382.321,218.453z"/>
	</g>
</g>
<g>
	<g>
		<path d="M382.321,273.067H27.279C12.24,273.067,0,285.317,0,300.373c0,15.056,12.24,27.307,27.279,27.307h355.041
			c15.039,0,27.279-12.25,27.279-27.307C409.6,285.317,397.36,273.067,382.321,273.067z M382.321,314.027H27.279
			c-7.513,0-13.626-6.124-13.626-13.653c0-7.53,6.113-13.653,13.626-13.653h355.041c7.513,0,13.626,6.124,13.626,13.653
			C395.947,307.903,389.833,314.027,382.321,314.027z"/>
	</g>
</g>
<g>
</g>
<g>
</g>
<g>
</g>
<g>
</g>
<g>
</g>
<g>
</g>
<g>
</g>
<g>
</g>
<g>
</g>
<g>
</g>
<g>
</g>
<g>
</g>
<g>
</g>
<g>
</g>
<g>
</g>
</svg>
